<svg version="1.1" id="Capa_1" xmlns="http://www.w3.org/2000/svg" xmlns:xlink="http://www.w3.org/1999/xlink" x="0px" y="0px"
	 viewBox="0 0 16 16" style="enable-background:new 0 0 16 16;" xml:space="preserve">
<g>
	<path style="fill: darkblue;" d="M8,0C3.582,0,0,3.582,0,8s3.582,8,8,8s8-3.582,8-8S12.418,0,8,0z M13.917,9
		c-0.422,2.513-2.404,4.495-4.917,4.917V11H7v2.917C4.487,13.495,2.505,11.513,2.083,9H5V7H2.083C2.505,4.487,4.487,2.505,7,2.083V5
		h2V2.083C11.513,2.505,13.495,4.487,13.917,7H11v2H13.917z"/>
</g>
</svg>
